<svg width="5" height="10" viewBox="0 0 5 10" fill="none" xmlns="http://www.w3.org/2000/svg">
<path d="M4.28786 0C4.42886 0.000693321 4.56655 0.0501661 4.6836 0.142199C4.80065 0.234231 4.89185 0.364715 4.94573 0.517249C4.99961 0.669784 5.01377 0.83756 4.98642 0.999486C4.95907 1.16141 4.89144 1.31026 4.79203 1.42732L1.72406 5.02283L4.79203 8.61834C4.90919 8.77849 4.97041 8.98448 4.96346 9.19517C4.95651 9.40586 4.8819 9.60572 4.75453 9.75481C4.62717 9.9039 4.45644 9.99124 4.27645 9.99938C4.09647 10.0075 3.92049 9.93585 3.78368 9.7987L0.207959 5.61301C0.0747623 5.45616 0 5.24399 0 5.02283C0 4.80167 0.0747623 4.5895 0.207959 4.43265L3.78368 0.246956C3.91718 0.0897465 4.0985 0.000934601 4.28786 0Z" fill="white"/>
</svg>
