<svg width="8" height="13" viewBox="0 0 8 13" fill="none" xmlns="http://www.w3.org/2000/svg">
<path d="M1.08371 13C0.869136 12.9991 0.659615 12.9348 0.481487 12.8151C0.30336 12.6955 0.164577 12.5259 0.0825842 12.3276C0.000591396 12.1293 -0.0209522 11.9112 0.0206631 11.7007C0.0622784 11.4902 0.165195 11.2967 0.316474 11.1445L4.9852 6.47032L0.316474 1.79616C0.138185 1.58797 0.0450214 1.32017 0.0556008 1.04628C0.0661801 0.772382 0.179724 0.512567 0.37354 0.318751C0.567357 0.124934 0.827172 0.011391 1.10107 0.000811619C1.37496 -0.00976772 1.64276 0.0833956 1.85095 0.261685L7.29235 5.70308C7.49504 5.90699 7.60881 6.18281 7.60881 6.47032C7.60881 6.75783 7.49504 7.03366 7.29235 7.23756L1.85095 12.679C1.64779 12.8833 1.37188 12.9988 1.08371 13Z" fill="white"/>
</svg>
