<svg width="10" height="6" viewBox="0 0 10 6" fill="none" xmlns="http://www.w3.org/2000/svg">
<path d="M-3.64389e-08 0.833624C0.000693292 0.668565 0.0501661 0.507395 0.142199 0.370375C0.234231 0.233354 0.364715 0.126597 0.517249 0.0635259C0.669784 0.00045451 0.83756 -0.0161174 0.999486 0.0158943C1.16141 0.0479061 1.31026 0.127073 1.42732 0.243441L5.02283 3.83477L8.61834 0.243442C8.77849 0.106296 8.98448 0.0346318 9.19517 0.0427698C9.40586 0.0509077 9.60572 0.138249 9.75481 0.287339C9.9039 0.436428 9.99124 0.636286 9.99938 0.846974C10.0075 1.05766 9.93585 1.26366 9.7987 1.42381L5.61301 5.6095C5.45616 5.76542 5.24399 5.85293 5.02283 5.85293C4.80167 5.85293 4.5895 5.76542 4.43265 5.6095L0.246956 1.42381C0.0897464 1.26753 0.000934555 1.05529 -3.64389e-08 0.833624Z" fill="#F37736"/>
</svg>
