<svg width="14" height="12" viewBox="0 0 14 12" fill="none" xmlns="http://www.w3.org/2000/svg">
<path d="M12.7055 0.0919153C12.106 -0.238164 11.4373 0.398417 11.0453 0.77565C10.1461 1.67158 9.38516 2.70897 8.53196 3.65205C7.58657 4.68944 6.71035 5.72684 5.7419 6.74069C5.18849 7.30654 4.58898 7.91954 4.22004 8.62685C3.38994 7.80162 2.67513 6.90569 1.75279 6.17484C1.0841 5.65614 -0.0227038 5.27891 0.000354619 6.52849C0.0464714 8.15535 1.45303 9.90005 2.49066 11.0081C2.92877 11.4797 3.50523 11.9748 4.17392 11.9984C4.98097 12.0455 5.81107 11.0553 6.2953 10.513C7.1485 9.56994 7.84025 8.50893 8.6242 7.54231C9.63876 6.26915 10.6764 5.01952 11.6679 3.72278C12.2905 2.92116 14.2504 0.940651 12.7055 0.0919153ZM1.01489 6.43419C0.991828 6.43419 0.96877 6.43419 0.922653 6.45772C0.830419 6.43419 0.761244 6.41057 0.669011 6.36342C0.738186 6.31626 0.853478 6.33984 1.01489 6.43419Z" fill="#0392CF"/>
</svg>
