<svg width="49" height="51" viewBox="0 0 49 51" fill="none" xmlns="http://www.w3.org/2000/svg">
<path d="M47.5058 2.98619H37.7138V1.50337C37.7138 0.673258 37.0445 0 36.2194 0C35.3942 0 34.725 0.673258 34.725 1.50337V2.98619H25.9944V1.50337C25.9944 0.673258 25.3252 0 24.5 0C23.6748 0 23.0056 0.673258 23.0056 1.50337V2.98619H14.6462V1.50337C14.6462 0.673258 13.9769 0 13.1517 0C12.3266 0 11.6573 0.673258 11.6573 1.50337V2.98619H1.4944C0.669244 2.98619 0 3.65945 0 4.48956V38.4587C0 39.2888 0.669244 39.962 1.4944 39.962H10.6666C12.1363 46.2797 17.7787 51 24.5 51C31.2213 51 36.8637 46.2794 38.3334 39.962H47.5056C48.3308 39.962 49 39.2888 49 38.4587V4.48956C49.0002 3.65945 48.3313 2.98619 47.5058 2.98619ZM11.6573 5.99292V7.35147C11.6573 8.18158 12.3266 8.85484 13.1517 8.85484C13.9769 8.85484 14.6462 8.18158 14.6462 7.35147V5.99292H23.0056V7.35147C23.0056 8.18158 23.6748 8.85484 24.5 8.85484C25.3252 8.85484 25.9944 8.18158 25.9944 7.35147V5.99292H34.725V7.35147C34.725 8.18158 35.3942 8.85484 36.2194 8.85484C37.0445 8.85484 37.7138 8.18158 37.7138 7.35147V5.99292H46.0114V12.1407H2.98881V5.99292H11.6573ZM24.5 47.9933C18.3127 47.9933 13.2788 42.9292 13.2788 36.7047C13.2788 30.4803 18.3127 25.4162 24.5 25.4162C30.6873 25.4162 35.7212 30.48 35.7212 36.7047C35.7212 42.9294 30.6876 47.9933 24.5 47.9933ZM38.7038 36.9553C38.7053 36.8716 38.71 36.7887 38.71 36.7047C38.71 28.8223 32.3354 22.4095 24.5 22.4095C16.6646 22.4095 10.29 28.8223 10.29 36.7047C10.29 36.7887 10.2949 36.8716 10.2962 36.9553H2.98856V15.1477H46.0112V36.9553H38.7038Z" fill="#1A283B"/>
<path d="M25.7918 36.5574V29.4659C25.7918 28.6565 25.1666 28 24.3959 28C23.6251 28 23 28.6565 23 29.4659V37.1648C23 37.5535 23.147 37.9263 23.4088 38.2014L26.6169 41.5707C26.8896 41.8568 27.2467 42 27.6041 42C27.9612 42 28.3185 41.8568 28.5912 41.5707C29.1363 40.9983 29.1363 40.0702 28.5912 39.4977L25.7918 36.5574Z" fill="#1A283B"/>
</svg>
