<svg width="93" height="90" viewBox="0 0 93 90" fill="none" xmlns="http://www.w3.org/2000/svg">
<path d="M43.151 90C42.6842 90 42.2174 89.874 41.7949 89.6282C41.0887 89.2157 24.3469 79.3662 12.118 64.5674C4.31887 55.1323 0.130421 44.7433 0.00285351 34.525C-0.065552 28.7894 1.06406 20.3803 6.8508 12.8887C15.7768 1.33522 24.8211 0 30.8482 0L31.1089 0.00104143C42.234 0.0791547 50.3225 8.63203 54.1958 13.7948C57.3174 10.5422 62.5311 7.778 67.7308 7.01457C68.6497 6.88126 69.587 6.81147 70.516 6.81147C76.6392 6.81147 82.3751 9.74645 86.2548 14.8644C89.0391 18.5378 92.7071 24.7546 92.4261 36.2987C92.098 49.7248 85.2777 62.8093 73.219 73.1411C60.0148 84.4508 44.6347 89.649 43.9858 89.8646C43.7131 89.9542 43.4302 90 43.151 90ZM30.8482 6.64483C25.5625 6.64483 18.5648 7.8509 11.2999 17.2516C6.73618 23.1601 5.84598 29.8559 5.90144 34.4334C6.03548 45.2244 11.703 54.3137 16.434 60.0378C26.2752 71.9475 39.6272 80.7014 43.4478 83.0792C47.1629 81.6835 59.304 76.7103 69.6471 67.8492C77.1523 61.4168 86.1735 50.6913 86.5294 36.1154C86.7549 26.9626 84.1047 22.2571 81.7706 19.1794C79.0122 15.5425 74.9115 13.4542 70.516 13.4542C69.8421 13.4542 69.1609 13.5042 68.4934 13.6011C62.2648 14.5166 57.6669 18.718 57.1446 20.0636C56.9024 21.3666 55.9891 22.3852 54.8243 22.6435C53.6328 22.907 52.4181 22.3206 51.7646 21.1645C51.686 21.025 43.4265 6.73128 31.0738 6.64588L30.8482 6.64483Z" fill="url(#paint0_linear)"/>
<defs>
<linearGradient id="paint0_linear" x1="46.2207" y1="0" x2="46.2207" y2="90" gradientUnits="userSpaceOnUse">
<stop stop-color="#1A283B"/>
<stop offset="1" stop-color="#0392CF"/>
</linearGradient>
</defs>
</svg>
