<svg width="46" height="90" viewBox="0 0 46 90" fill="none" xmlns="http://www.w3.org/2000/svg">
<path d="M1.99944 89.0604C1.99944 89.0604 2.08722 88.9615 2.175 88.7637C2.26278 88.5659 2.52612 88.2692 2.78946 87.8736C3.22837 87.0824 3.93061 85.7967 4.45729 84.1154C4.98397 82.4341 5.42287 80.2582 5.59843 77.6868C5.77399 75.1154 5.68621 72.2473 5.42287 69.0824C4.89619 62.7527 3.31615 55.533 1.91166 47.522C1.20942 43.467 0.507175 39.3132 0.156054 34.8626C-0.107287 30.4121 -0.195068 25.5659 1.20942 20.6209C1.91166 18.1484 2.96502 15.6758 4.45729 13.5C5.24731 12.4121 6.03733 11.4231 6.91514 10.533L7.5296 9.93956L8.31962 9.24725C8.75853 8.85165 9.28521 8.45604 9.81189 8.15934C11.8308 6.77473 14.2009 5.78571 16.6588 5.39011C17.8877 5.19231 19.1166 5.19231 20.5211 5.39011L21.2233 5.48901L22.1011 5.68681C22.7156 5.78571 23.2423 5.98352 23.8567 6.18132C26.139 6.97253 28.4213 8.45604 30.2647 10.533C32.0203 12.7088 33.1615 15.478 33.5126 18.0494C33.8637 20.7198 33.6004 23.1923 33.0737 25.3681C32.4592 27.544 31.5814 29.522 30.4403 31.2033C29.2991 32.8846 27.8946 34.2692 26.3146 35.1593C24.7345 36.1483 23.0667 36.6429 21.3989 36.6429C19.8188 36.6429 18.4144 36.1484 17.2732 35.5549C16.1321 34.8626 15.2543 34.1703 14.552 33.3791C13.2353 31.7967 12.4453 30.511 12.0064 29.522C11.5675 28.533 11.3919 28.0385 11.3919 28.0385C11.3042 27.7418 11.3919 27.4451 11.6553 27.3462C11.8308 27.2473 12.0064 27.3462 12.0942 27.4451C12.0942 27.4451 12.182 27.544 12.3575 27.6429C12.5331 27.8407 12.7964 28.0385 13.1475 28.3352C13.8498 28.9286 14.9031 29.7198 16.3076 30.4121C17.7121 31.1044 19.3799 31.5 20.8722 30.9066C22.2767 30.4121 23.6812 28.9286 24.559 26.8517C25.4368 24.7747 25.7879 22.0055 25.1734 20.0275C24.9101 19.0385 24.3834 18.2473 23.769 17.5549C23.1545 16.9615 22.2767 16.3681 21.1356 15.9725C20.8722 15.8736 20.5211 15.7747 20.2577 15.6758L19.8188 15.5769L19.1166 15.478C18.6777 15.3791 18.0632 15.3791 17.4488 15.3791C16.3076 15.3791 14.9909 15.7747 13.6742 16.3681C11.0408 17.6538 8.93408 19.8297 7.79294 23.1923C6.56402 26.456 6.30068 30.4121 6.30068 34.467C6.30068 38.522 6.6518 42.5769 7.00292 46.6319C7.35404 50.5879 7.79294 54.544 8.14406 58.3022C8.4074 62.0604 8.67074 65.6209 8.67074 68.9835C8.67074 72.3462 8.4074 75.4121 7.9685 78.0824C7.5296 80.7527 6.73958 83.0275 5.94956 84.8077C5.15953 86.5879 4.36951 87.7747 3.75505 88.6648C3.49171 89.0604 3.22836 89.3571 3.0528 89.5549C2.87724 89.7527 2.78946 89.8516 2.78946 89.8516C2.6139 90.0494 2.35056 90.0494 2.175 89.8516C1.82388 89.5549 1.82388 89.2582 1.99944 89.0604ZM42.9051 0.148352C42.7295 -0.0494505 42.4662 -0.0494505 42.2906 0.148352C42.2906 0.148352 42.2028 0.247253 42.0273 0.445055C41.8517 0.642857 41.5884 0.939561 41.325 1.33517C40.7106 2.12637 39.9205 3.41209 39.1305 5.09341C38.3405 6.87363 37.6382 9.14835 37.1116 11.8187C36.6727 14.489 36.4093 17.5549 36.4093 20.9176C36.4093 24.2802 36.5849 27.8407 36.936 31.5989C37.1993 35.3571 37.6383 39.2143 38.0772 43.2692C38.4283 47.2253 38.7794 51.3791 38.7794 55.4341C38.7794 59.489 38.4283 63.4451 37.2871 66.7088C36.146 69.9725 34.0393 72.1484 31.4058 73.533C30.0891 74.1264 28.7724 74.522 27.6313 74.522C27.0168 74.522 26.4024 74.522 25.9635 74.4231L25.2612 74.3242L24.8223 74.2253C24.559 74.1264 24.2079 74.0275 23.9445 73.9286C22.8034 73.533 21.9256 72.9396 21.3111 72.3461C20.6966 71.7527 20.17 70.9615 19.9066 69.8736C19.2922 67.7967 19.6433 65.0275 20.5211 63.0495C21.3989 60.9725 22.7156 59.489 24.2079 58.9945C25.6123 58.4011 27.368 58.7967 28.7724 59.489C30.1769 60.1813 31.2303 60.9725 31.9325 61.5659C32.2836 61.8626 32.547 62.0604 32.7226 62.2582C32.8981 62.456 32.9859 62.456 32.9859 62.456C33.0737 62.5549 33.2492 62.555 33.4248 62.555C33.6881 62.456 33.7759 62.1593 33.6881 61.8626C33.6881 61.8626 33.5126 61.3681 33.0737 60.3791C32.6348 59.3901 31.8447 58.1044 30.528 56.522C29.8258 55.7308 28.948 55.0385 27.8069 54.3462C26.6657 53.7527 25.2612 53.2582 23.6812 53.2582C22.1011 53.2582 20.3455 53.7528 18.7655 54.7418C17.1854 55.7308 15.7809 57.1154 14.6398 58.6978C13.4987 60.3791 12.6209 62.2582 12.0064 64.533C11.4797 66.7088 11.2164 69.1813 11.5675 71.8516C11.9186 74.4231 13.0598 77.2912 14.8154 79.3681C16.571 81.544 18.941 83.0275 21.2233 83.7198C21.8378 83.9176 22.3645 84.1154 22.9789 84.2143L23.8567 84.4121L24.559 84.511C25.8757 84.7088 27.1046 84.7088 28.4213 84.511C30.9669 84.1154 33.2492 83.1264 35.2682 81.7418C35.7949 81.3461 36.2338 81.0494 36.7605 80.6538L37.5505 79.9615L38.1649 79.3681C39.0427 78.478 39.9205 77.489 40.6228 76.4011C42.115 74.2253 43.1684 71.7527 43.8707 69.2802C45.1874 64.3352 45.1874 59.489 44.924 55.0385C44.5729 50.5879 43.8707 46.3352 43.1684 42.3791C41.7639 34.3681 40.1839 27.0495 39.6572 20.8187C39.3939 17.6538 39.3061 14.7857 39.4816 12.2143C39.6572 9.64286 40.0961 7.56593 40.6228 5.78571C41.1495 4.1044 41.7639 2.81868 42.2906 2.02747C42.4662 1.63187 42.7295 1.33516 42.9051 1.13736C43.0806 0.93956 43.0806 0.84066 43.0806 0.84066C43.0806 0.642857 43.0806 0.346154 42.9051 0.148352Z" fill="url(#paint0_linear)"/>
<defs>
<linearGradient id="paint0_linear" x1="22.5308" y1="0" x2="22.5308" y2="90" gradientUnits="userSpaceOnUse">
<stop stop-color="#1A283B"/>
<stop offset="1" stop-color="#0392CF"/>
</linearGradient>
</defs>
</svg>
