<svg width="103" height="90" viewBox="0 0 103 90" fill="none" xmlns="http://www.w3.org/2000/svg">
<path d="M100.987 60.1412C100.685 59.8627 95.4842 55.1063 87.2389 52.383C98.7168 39.23 98.8711 23.0811 98.8711 22.3578L98.8675 20.2433L96.7272 20.1183C96.7272 20.1183 96.3193 20.0947 95.5727 20.0947C91.5374 20.0947 78.4863 20.7956 66.8133 29.014C64.5295 12.5488 53.3566 1.93985 52.8386 1.45725L51.2762 0L49.7137 1.45607C49.1957 1.93867 38.0228 12.5477 35.739 29.0128C24.0661 20.7944 11.0149 20.0935 6.97959 20.0935C6.23425 20.0935 5.82629 20.1171 5.82629 20.1171L3.68121 20.2445L3.68241 22.3578C3.6836 23.0811 3.83794 39.2288 15.3123 52.3806C7.06692 55.1028 1.86872 59.8627 1.56724 60.1412L0 61.5925L1.3818 63.2162C1.77421 63.6787 11.192 74.5532 26.381 75.8252C27.2328 75.8972 28.0966 75.9337 28.9496 75.9337C32.5184 75.9337 35.8 75.3178 38.7155 74.3986C38.6043 74.8989 38.5325 75.411 38.5038 75.9396C38.0587 84.3055 49.874 89.4065 50.3777 89.6212L51.2762 90L52.1734 89.6212C52.6771 89.4065 64.4924 84.3055 64.0474 75.9396C64.021 75.4122 63.9445 74.8989 63.8368 74.3986C66.7523 75.3166 70.0328 75.9337 73.6015 75.9337C74.4569 75.9337 75.3219 75.8972 76.1689 75.8252C91.358 74.5544 100.777 63.6787 101.169 63.2162L102.551 61.5925L100.987 60.1412ZM59.5084 76.1744C59.7165 80.0966 54.2755 83.6082 51.2762 85.0855C48.2769 83.6082 42.8358 80.0966 43.044 76.1744C43.1313 74.5331 44.0418 72.9768 45.2776 71.5986C46.9501 69.7342 49.216 68.2086 50.8969 67.2729C51.0154 67.3732 51.1422 67.477 51.275 67.5855C51.409 67.477 51.5358 67.3732 51.653 67.2729C53.3339 68.2086 55.601 69.7342 57.2712 71.5986C58.5106 72.9768 59.421 74.5331 59.5084 76.1744ZM35.3418 34.3863C35.7198 34.6966 36.1027 34.9963 36.4759 35.3267C36.8899 35.6925 37.2667 36.0736 37.6532 36.4512C38.5684 37.3433 39.4178 38.2601 40.1907 39.2029C45.4283 45.5982 47.5567 52.9151 48.4157 58.0314C48.4551 58.2662 48.4982 58.5105 48.5329 58.7382C48.7339 60.0503 48.8464 61.1784 48.911 62.0928C48.7865 61.9772 48.6597 61.858 48.5269 61.7365C48.6621 61.8887 48.7913 62.0315 48.9181 62.1719C48.9229 62.2415 48.9301 62.3218 48.9349 62.3878C48.1261 62.3855 47.1188 62.3513 45.9882 62.2698C45.877 62.2616 45.7693 62.2521 45.6568 62.2451C40.3677 61.8309 32.2193 60.2757 24.9131 55.0662C24.0493 54.4503 23.1999 53.7777 22.3648 53.0556C21.8504 52.6072 21.3372 52.1541 20.8371 51.6632C20.6492 51.4803 20.483 51.2892 20.3023 51.1039C11.0508 41.6501 8.87941 29.5461 8.37933 24.6045C13.4818 24.7956 25.3402 26.2009 35.3418 34.3863ZM67.2105 34.3863C77.2133 26.1986 89.0789 24.7956 94.1778 24.6045C93.6897 29.5402 91.5362 41.6206 82.2488 51.1051C82.0694 51.2903 81.9031 51.4803 81.7165 51.6632C81.2164 52.1541 80.7007 52.6072 80.1875 53.0556C79.356 53.7777 78.5066 54.4503 77.6416 55.065C70.3235 60.2828 62.1631 61.8368 56.8752 62.2474C56.7699 62.2569 56.6682 62.2628 56.5653 62.271C55.4311 62.3513 54.4226 62.3867 53.6127 62.389C53.6163 62.3253 53.6246 62.2462 53.6282 62.179C53.7574 62.0362 53.889 61.8923 54.0254 61.7377C53.8902 61.8604 53.7586 61.9819 53.6342 62.0999C53.6988 61.1902 53.8089 60.061 54.0075 58.7489C54.041 58.5188 54.0864 58.2686 54.1271 58.0279C54.9813 52.9175 57.1037 45.61 62.3605 39.2041C63.1333 38.2613 63.9863 37.3456 64.9004 36.4536C65.2868 36.076 65.666 35.6937 66.0776 35.3291C66.4532 34.9952 66.8337 34.6966 67.2105 34.3863ZM51.2762 50.3782C49.4194 44.5858 46.0481 37.9698 39.9729 32.4169C40.8128 19.6475 48.0316 10.0638 51.2762 6.37413C54.5243 10.0662 61.7408 19.6486 62.5794 32.4169C56.5055 37.9698 53.1341 44.5847 51.2762 50.3782ZM18.9037 56.0291C27.2556 63.5064 37.2703 65.89 43.9879 66.5967C43.489 67.0168 42.9961 67.4711 42.52 67.9561C38.9787 69.798 34.3177 71.4499 28.9496 71.4499C28.2222 71.4499 27.4889 71.4192 26.7663 71.3579C16.852 70.5295 9.56374 64.8292 6.4831 61.969C8.78969 60.2745 13.1911 57.5182 18.9037 56.0291ZM58.5644 66.5967C65.2832 65.89 75.292 63.5064 83.6462 56.0326C89.3481 57.5276 93.7591 60.2863 96.0692 61.9749C93.0018 64.841 85.7434 70.5236 75.7873 71.3579C75.0635 71.4192 74.3301 71.4499 73.6027 71.4499C68.237 71.4499 63.5556 69.7779 60.0024 67.9242C59.5359 67.4534 59.0525 67.0086 58.5644 66.5967Z" fill="url(#paint0_linear)"/>
<defs>
<linearGradient id="paint0_linear" x1="51.2756" y1="0" x2="51.2756" y2="90" gradientUnits="userSpaceOnUse">
<stop stop-color="#1A283B"/>
<stop offset="1" stop-color="#0392CF"/>
</linearGradient>
</defs>
</svg>
