<svg width="311" height="416" viewBox="0 0 311 416" fill="none" xmlns="http://www.w3.org/2000/svg">
<path d="M260.192 421.192C259.884 420.984 259.573 420.759 259.253 420.518C257.309 419.072 255.213 417.046 253.17 414.654L252.996 414.754L250.85 411.752C250.839 411.739 250.83 411.724 250.819 411.712L248.856 408.945C248.354 408.252 247.762 407.378 247.076 406.373L246.606 405.689C245.574 404.174 244.628 402.795 243.623 401.226C239.649 395.2 233.503 385.368 226.922 372.981L222.105 363.617C221.569 362.569 221.054 361.481 220.538 360.388L218.804 356.748C218.27 355.638 217.736 354.514 217.216 353.37C214.317 346.912 210.945 339.212 207.827 330.906C201.525 314.395 196.396 297.441 192.598 280.542C188.821 263.774 186.165 245.871 184.917 228.771C183.874 214.344 183.757 199.506 184.561 183.413L186.071 165.348L187.043 156.816C187.129 156.004 187.216 155.218 187.346 154.461L189.67 139.734L198.25 140.965L196.371 155.491C196.244 156.415 196.197 157.02 196.147 157.643L195.408 166.237C195.008 169.97 194.841 174.093 194.663 178.454C194.593 180.198 194.518 181.987 194.433 183.818C194.083 199.384 194.585 213.767 195.968 227.67C197.623 244.104 200.642 261.306 204.703 277.412C208.793 293.581 214.15 309.762 220.628 325.499C226.326 339.355 233.002 353.13 239.939 365.333C245.202 374.651 250.788 383.583 256.556 391.89L260.347 397.236C260.823 397.896 261.246 398.492 261.626 399L264.016 402.177C266.462 405.45 268.603 408.917 269.99 411.864C270.807 413.62 273.256 418.894 269.695 422.029C268.055 423.469 265.076 424.496 260.192 421.192Z" fill="#1A1E3B"/>
<path d="M216.711 61.7473C233.67 73.2212 277.314 118.749 233.789 281.91L271.507 226.197C286.123 266.719 250.809 314.525 250.809 314.525L281.932 290.894C286.791 321.816 236.539 358.844 236.539 358.844L230.811 354.819C214.294 353.555 200.186 348.395 188.256 340.324C121.191 294.951 123.068 157.528 153.895 102.576C186.819 43.8904 208.672 56.9264 210.494 58.1592C210.573 58.213 210.618 58.2477 210.618 58.2477C210.625 58.2577 210.638 58.2667 210.662 58.2824C211.021 58.53 213.335 59.4633 216.711 61.7473ZM221.943 54.0148C218.944 51.9863 216.637 50.8356 215.472 50.2652C213.203 48.8019 206.106 45.0924 195.52 47.5986C179.082 51.4871 162.339 68.4459 145.755 98.0055C129.042 127.797 120.921 177.977 125.065 225.844C127.917 258.769 139.239 318.428 183.027 348.053C196.123 356.914 211.07 362.24 227.491 363.894L231.168 366.483L236.667 370.348L242.077 366.363C247.688 362.224 296.731 324.948 291.153 289.45L288.73 274.022L277.92 282.226C284.084 264.692 287.596 243.298 280.285 223.037L274.064 205.779L263.779 220.973L254.015 235.39C277.806 108.635 240.675 66.6934 221.943 54.0148Z" fill="#1A1E3B"/>
</svg>
