<svg width="6" height="10" viewBox="0 0 6 10" fill="none" xmlns="http://www.w3.org/2000/svg">
<path d="M0.833624 10C0.668566 9.99931 0.507396 9.94983 0.370375 9.8578C0.233354 9.76577 0.126598 9.63529 0.0635263 9.48275C0.00045492 9.33022 -0.016117 9.16244 0.0158947 9.00051C0.0479065 8.83859 0.127073 8.68974 0.243442 8.57268L3.83477 4.97717L0.243442 1.38166C0.106296 1.22151 0.0346319 1.01552 0.0427698 0.804828C0.0509078 0.59414 0.138249 0.394282 0.287339 0.245193C0.436428 0.0961029 0.636286 0.00876227 0.846974 0.000624322C1.05766 -0.00751363 1.26366 0.0641505 1.42381 0.201296L5.6095 4.38699C5.76542 4.54384 5.85293 4.75601 5.85293 4.97717C5.85293 5.19833 5.76542 5.4105 5.6095 5.56735L1.42381 9.75304C1.26753 9.91025 1.05529 9.99907 0.833624 10Z" fill="black"/>
</svg>
