<svg width="12" height="20" viewBox="0 0 12 20" fill="none" xmlns="http://www.w3.org/2000/svg">
<path d="M1.66725 20C1.33713 19.9986 1.01479 19.8997 0.74075 19.7156C0.466708 19.5315 0.253195 19.2706 0.127053 18.9655C0.000909835 18.6604 -0.0322341 18.3249 0.0317894 18.001C0.095813 17.6772 0.254146 17.3795 0.486883 17.1454L7.66953 9.95434L0.486883 2.76332C0.212593 2.44303 0.0692637 2.03103 0.0855396 1.60966C0.101816 1.18828 0.276498 0.788565 0.574677 0.490385C0.872857 0.192206 1.27257 0.0175245 1.69395 0.00124864C2.11532 -0.0150273 2.52732 0.128301 2.84761 0.402592L11.219 8.77397C11.5308 9.08767 11.7059 9.51202 11.7059 9.95434C11.7059 10.3967 11.5308 10.821 11.219 11.1347L2.84761 19.5061C2.53507 19.8205 2.11058 19.9981 1.66725 20Z" fill="#F37736"/>
</svg>
