<svg width="35" height="50" viewBox="0 0 35 50" fill="none" xmlns="http://www.w3.org/2000/svg">
<path d="M17.5 0C7.8505 0 0 7.88555 0 17.5781C0 20.8529 0.903098 24.0488 2.61226 26.8215L16.5039 49.3075C16.77 49.7383 17.2388 50 17.743 50C17.7468 50 17.7506 50 17.7545 50C18.2631 49.996 18.7329 49.7262 18.9941 49.2879L32.5316 26.584C34.1465 23.8699 35 20.7558 35 17.5781C35 7.88555 27.1495 0 17.5 0ZM30.0286 25.0799L17.7209 45.7213L5.09124 25.2779C3.66858 22.9701 2.89722 20.3076 2.89722 17.5781C2.89722 9.50098 9.45875 2.91016 17.5 2.91016C25.5413 2.91016 32.0931 9.50098 32.0931 17.5781C32.0931 20.2267 31.3725 22.8211 30.0286 25.0799Z" fill="#1A283B"/>
<path d="M17.5 9C12.8131 9 9 12.8131 9 17.5C9 22.157 12.751 26 17.5 26C22.3075 26 26 22.1058 26 17.5C26 12.8131 22.1869 9 17.5 9ZM17.5 23.1856C14.3591 23.1856 11.8144 20.6324 11.8144 17.5C11.8144 14.3754 14.3754 11.8144 17.5 11.8144C20.6246 11.8144 23.1761 14.3754 23.1761 17.5C23.1761 20.5867 20.6907 23.1856 17.5 23.1856Z" fill="#1A283B"/>
</svg>
