<svg width="6" height="11" viewBox="0 0 6 11" fill="none" xmlns="http://www.w3.org/2000/svg">
<path d="M0.833624 10.8076C0.668566 10.8069 0.507396 10.7575 0.370375 10.6654C0.233354 10.5734 0.126598 10.4429 0.0635263 10.2904C0.00045492 10.1378 -0.016117 9.97006 0.0158947 9.80813C0.0479065 9.6462 0.127073 9.49736 0.243442 9.3803L3.83477 5.78479L0.243442 2.18928C0.106296 2.02913 0.0346319 1.82313 0.0427698 1.61245C0.0509078 1.40176 0.138249 1.2019 0.287339 1.05281C0.436428 0.90372 0.636286 0.816379 0.846974 0.808242C1.05766 0.800104 1.26366 0.871768 1.42381 1.00891L5.6095 5.1946C5.76542 5.35145 5.85293 5.56363 5.85293 5.78479C5.85293 6.00595 5.76542 6.21812 5.6095 6.37497L1.42381 10.5607C1.26753 10.7179 1.05529 10.8067 0.833624 10.8076Z" fill="white"/>
</svg>
