<svg width="60" height="60" viewBox="0 0 60 60" fill="none" xmlns="http://www.w3.org/2000/svg">
<path d="M14 30C14 38.8222 21.1778 46 30 46C38.8222 46 46 38.8222 46 30C46 21.1778 38.8227 14 30 14C21.1773 14 14 21.1778 14 30ZM30 17.5556C36.862 17.5556 42.4444 23.138 42.4444 30C42.4444 36.862 36.862 42.4444 30 42.4444C23.138 42.4444 17.5556 36.862 17.5556 30C17.5556 23.138 23.138 17.5556 30 17.5556Z" fill="#F37736"/>
<path d="M30 60C30.6354 60 31.2152 59.5714 31.4955 58.8951L34.8285 50.8516C35.2348 49.8713 34.8945 48.6856 34.0686 48.2035C33.2428 47.7219 32.2437 48.1252 31.8375 49.1059L30 53.5403L28.1625 49.1054C27.7563 48.1252 26.7572 47.7214 25.9314 48.2035C25.1055 48.6856 24.7652 49.8708 25.1715 50.851L28.5045 58.8946C28.7848 59.5714 29.3646 60 30 60Z" fill="#F37736"/>
<path d="M28.1625 10.8943L30 6.45955L31.8375 10.8943C32.2441 11.8745 33.2432 12.2783 34.0686 11.7962C34.8945 11.3141 35.2348 10.1284 34.8285 9.14824L31.4955 1.10483C31.2152 0.428542 30.6354 0 30 0C29.3646 0 28.7848 0.428542 28.5045 1.10483L25.1715 9.14875C24.7652 10.1289 25.1055 11.3141 25.9318 11.7962C26.7624 12.2814 27.7589 11.8683 28.1625 10.8943Z" fill="#F37736"/>
<path d="M58.8951 28.5045L50.8516 25.1715C49.8713 24.7652 48.6856 25.1055 48.2035 25.9314C47.7214 26.7572 48.1252 27.7563 49.1054 28.1625L53.5403 30L49.1054 31.8375C48.1252 32.2437 47.7214 33.2428 48.2035 34.0686C48.683 34.8902 49.8667 35.2365 50.8516 34.8285L58.8951 31.4955C59.5714 31.2152 60 30.6354 60 30C60 29.3646 59.5714 28.7848 58.8951 28.5045Z" fill="#F37736"/>
<path d="M1.10537 28.5044C0.428551 28.7848 0 29.3645 0 29.9999C0 30.6352 0.428552 31.215 1.10486 31.4954L9.14844 34.8283C10.1348 35.2371 11.3175 34.8891 11.7965 34.0684C12.2786 33.2426 11.8748 32.2435 10.8941 31.8373L6.45969 29.9999L10.8946 28.1624C11.8748 27.7562 12.2786 26.7572 11.7965 25.9314C11.3144 25.1055 10.1292 24.7653 9.14896 25.1715L1.10537 28.5044Z" fill="#F37736"/>
<path d="M51.5307 8.46928C51.1015 8.04047 50.467 7.89031 49.8918 8.08219L43.0957 10.3476C42.2565 10.6275 41.803 11.5344 42.0825 12.3736C42.3624 13.2129 43.2693 13.6663 44.1086 13.3868L47.8653 12.1346L46.6131 15.8913C46.3336 16.7305 46.787 17.6378 47.6263 17.9173C48.4652 18.1972 49.3724 17.7438 49.6523 16.9045L51.9178 10.1086C52.1097 9.53297 51.9595 8.89809 51.5307 8.46928Z" fill="#F37736"/>
<path d="M12.3735 42.0827C11.5343 41.8028 10.6274 42.2566 10.3475 43.0959L8.08201 49.8918C7.89054 50.467 8.04029 51.1019 8.46911 51.5307C8.8996 51.9616 9.53449 52.1089 10.1085 51.9178L16.9045 49.6524C17.7434 49.3729 18.1972 48.4656 17.9173 47.6264C17.6374 46.7871 16.731 46.3332 15.8913 46.6136L12.1345 47.8654L13.3868 44.1091C13.6667 43.2694 13.2128 42.3626 12.3735 42.0827Z" fill="#F37736"/>
<path d="M16.9045 10.3475L10.1085 8.08201C9.53282 7.89054 8.89793 8.04029 8.46911 8.46911C8.04029 8.89834 7.89054 9.53281 8.08201 10.1085L10.3475 16.9045C10.6274 17.7438 11.5343 18.1972 12.3735 17.9173C13.2128 17.6378 13.6667 16.7305 13.3868 15.8912L12.1345 12.1345L15.8913 13.3867C16.7306 13.6666 17.6374 13.2128 17.9173 12.3739C18.1972 11.5342 17.7434 10.6274 16.9045 10.3475Z" fill="#F37736"/>
<path d="M49.6523 43.0955C49.3724 42.2566 48.4651 41.8028 47.6262 42.0827C46.787 42.3622 46.3335 43.2695 46.613 44.1087L47.8653 47.8655L44.1085 46.6133C43.2697 46.3334 42.3624 46.7872 42.0825 47.6261C41.803 48.4654 42.2565 49.3727 43.0957 49.6526L49.8917 51.9176C50.4636 52.1087 51.0993 51.9623 51.5306 51.531C51.9599 51.1017 52.1096 50.4672 51.9177 49.8916L49.6523 43.0955Z" fill="#F37736"/>
</svg>
