<svg width="93" height="85" viewBox="0 0 93 85" fill="none" xmlns="http://www.w3.org/2000/svg">
<g filter="url(#filter0_d)">
<path d="M40 76C40 98.0556 57.9444 116 80 116C102.056 116 120 98.0556 120 76C120 53.9444 102.057 36 80 36C57.9433 36 40 53.9444 40 76ZM80 44.8889C97.1551 44.8889 111.111 58.8449 111.111 76C111.111 93.1551 97.1551 107.111 80 107.111C62.8449 107.111 48.8889 93.1551 48.8889 76C48.8889 58.8449 62.8449 44.8889 80 44.8889Z" fill="#F37736"/>
<path d="M75.2225 28.1437L80 16.6872L84.7775 28.1437C85.8348 30.6759 88.4323 31.7191 90.5784 30.4736C92.7257 29.2282 93.6104 26.1651 92.5542 23.6329L83.8883 2.85416C83.1594 1.10707 81.6519 0 80 0C78.3481 0 76.8406 1.10707 76.1116 2.85416L67.4458 23.6343C66.3896 26.1664 67.2743 29.2282 69.4227 30.4736C71.5824 31.727 74.1731 30.6599 75.2225 28.1437Z" fill="#F37736"/>
<path d="M6.85555 72.1114C5.10709 72.8404 4 74.3478 4 75.9997C4 77.6516 5.10709 79.1591 6.85422 79.888L27.6335 88.5536C30.1816 89.6165 33.2368 88.7116 34.4743 86.5779C35.7198 84.4307 34.6765 81.8332 32.143 80.7771L20.6875 75.9997L32.1443 71.2223C34.6765 70.1662 35.7198 67.5687 34.4743 65.4215C33.2288 63.2743 30.167 62.3897 27.6348 63.4458L6.85555 72.1114Z" fill="#F37736"/>
<path d="M47.1517 26.1034L29.482 20.2132C27.9853 19.7154 26.3346 20.1048 25.2197 21.2197C24.1048 22.3357 23.7154 23.9853 24.2132 25.482L30.1035 43.1516C30.8312 45.3337 33.1891 46.5127 35.3712 45.7849C37.5533 45.0583 38.7333 42.6994 38.0056 40.5172L34.7497 30.7497L44.5173 34.0055C46.6994 34.7333 49.0573 33.5533 49.785 31.3722C50.5128 29.189 49.3328 26.8312 47.1517 26.1034Z" fill="#F37736"/>
</g>
<defs>
<filter id="filter0_d" x="0" y="0" width="160" height="160" filterUnits="userSpaceOnUse" color-interpolation-filters="sRGB">
<feFlood flood-opacity="0" result="BackgroundImageFix"/>
<feColorMatrix in="SourceAlpha" type="matrix" values="0 0 0 0 0 0 0 0 0 0 0 0 0 0 0 0 0 0 127 0"/>
<feOffset dy="4"/>
<feGaussianBlur stdDeviation="2"/>
<feColorMatrix type="matrix" values="0 0 0 0 0 0 0 0 0 0 0 0 0 0 0 0 0 0 0.25 0"/>
<feBlend mode="normal" in2="BackgroundImageFix" result="effect1_dropShadow"/>
<feBlend mode="normal" in="SourceGraphic" in2="effect1_dropShadow" result="shape"/>
</filter>
</defs>
</svg>
