<svg width="46" height="58" viewBox="0 0 46 58" fill="none" xmlns="http://www.w3.org/2000/svg">
<path d="M23.3163 13.8421C23.2089 13.838 23.1024 13.8362 22.9964 13.8362C18.0227 13.8362 13.8934 17.8291 13.7227 22.881C13.5484 28.0407 17.5685 32.3821 22.6838 32.5579C22.7911 32.562 22.8976 32.5638 23.0036 32.5638C27.9774 32.5638 32.1066 28.5709 32.2773 23.519C32.4516 18.3593 28.4315 14.0179 23.3163 13.8421ZM22.7152 31.6309C18.1067 31.4718 14.4851 27.5613 14.6418 22.9127C14.7991 18.2637 18.6736 14.6083 23.2848 14.7692C27.8933 14.9282 31.515 18.8387 31.3582 23.4873C31.2009 28.1359 27.3112 31.7736 22.7152 31.6309Z" fill="#0392CF"/>
<path d="M22.54 5.10389V11.6928C22.54 11.9493 22.7458 12.1568 23 12.1568C23.2543 12.1568 23.46 11.9493 23.46 11.6928V5.10389C23.46 4.84742 23.2543 4.63989 23 4.63989C22.7458 4.63989 22.54 4.84742 22.54 5.10389Z" fill="#0392CF"/>
<path d="M22.54 34.7072V41.2961C22.54 41.5525 22.7458 41.7601 23 41.7601C23.2543 41.7601 23.46 41.5525 23.46 41.2961V34.7072C23.46 34.4507 23.2543 34.2432 23 34.2432C22.7458 34.2432 22.54 34.4507 22.54 34.7072Z" fill="#0392CF"/>
<path d="M16.0529 6.92888C15.8242 7.0408 15.7285 7.31811 15.839 7.54875L18.2158 12.4982C18.2954 12.6641 18.4593 12.7601 18.6305 12.7601C18.6974 12.7601 18.7661 12.7452 18.8304 12.7139C19.059 12.602 19.1547 12.3247 19.0442 12.094L16.6674 7.14456C16.5569 6.91438 16.2815 6.81786 16.0529 6.92888Z" fill="#0392CF"/>
<path d="M6.81643 7.00716C6.63045 7.18161 6.62012 7.47524 6.79352 7.66283L14.1535 15.6283C14.2443 15.7266 14.3669 15.776 14.49 15.776C14.6023 15.776 14.715 15.7348 14.8035 15.6514C14.9895 15.477 14.9998 15.1833 14.8265 14.9958L7.46645 7.03027C7.29305 6.84222 7.00196 6.83225 6.81643 7.00716Z" fill="#0392CF"/>
<path d="M5.49073 15.8803C5.37798 16.11 5.47187 16.3882 5.69962 16.5015L11.9096 19.5946C11.9748 19.6272 12.0444 19.6426 12.1127 19.6426C12.2825 19.6426 12.4455 19.5479 12.5255 19.3839C12.6382 19.1541 12.5444 18.8759 12.3166 18.7626L6.10661 15.6696C5.8802 15.5568 5.60304 15.6506 5.49073 15.8803Z" fill="#0392CF"/>
<path d="M5.05998 23.6641H11.5921C11.8463 23.6641 12.0521 23.4566 12.0521 23.2001C12.0521 22.9436 11.8463 22.7361 11.5921 22.7361H5.05998C4.80572 22.7361 4.59998 22.9436 4.59998 23.2001C4.59998 23.4566 4.80572 23.6641 5.05998 23.6641Z" fill="#0392CF"/>
<path d="M40.94 22.7361H34.4079C34.1536 22.7361 33.9479 22.9436 33.9479 23.2001C33.9479 23.4566 34.1536 23.6641 34.4079 23.6641H40.94C41.1942 23.6641 41.4 23.4566 41.4 23.2001C41.4 22.9436 41.1942 22.7361 40.94 22.7361Z" fill="#0392CF"/>
<path d="M7.08277 29.5877C6.85411 29.6996 6.75843 29.9769 6.86894 30.2075C6.94845 30.3734 7.11241 30.4695 7.28357 30.4695C7.3505 30.4695 7.41923 30.4545 7.48347 30.4232L12.3903 28.0257C12.6189 27.9138 12.7146 27.6365 12.6041 27.4059C12.4936 27.1752 12.2187 27.0792 11.9896 27.1902L7.08277 29.5877Z" fill="#0392CF"/>
<path d="M6.94672 39.5243C7.03746 39.6227 7.1601 39.6721 7.28318 39.6721C7.39549 39.6721 7.50824 39.6308 7.59674 39.5474L15.4936 32.1234C15.6795 31.9485 15.6899 31.6554 15.5165 31.4678C15.3426 31.2797 15.052 31.2698 14.8664 31.4447L6.96963 38.8687C6.78365 39.0436 6.77332 39.3367 6.94672 39.5243Z" fill="#0392CF"/>
<path d="M15.7433 40.8615C15.8085 40.8941 15.8781 40.9095 15.9464 40.9095C16.1162 40.9095 16.2792 40.8148 16.3592 40.6508L19.4256 34.3868C19.5383 34.157 19.4444 33.8788 19.2167 33.7655C18.9898 33.6518 18.7131 33.746 18.6008 33.9762L15.5344 40.2402C15.4217 40.47 15.5156 40.7482 15.7433 40.8615Z" fill="#0392CF"/>
<path d="M27.1697 33.6863C26.941 33.7982 26.8453 34.0756 26.9559 34.3062L29.3327 39.2557C29.4122 39.4215 29.5761 39.5176 29.7473 39.5176C29.8142 39.5176 29.883 39.5026 29.9472 39.4714C30.1758 39.3595 30.2715 39.0821 30.161 38.8515L27.7842 33.902C27.6737 33.6714 27.3988 33.5758 27.1697 33.6863Z" fill="#0392CF"/>
<path d="M38.5335 39.3696C38.6243 39.4679 38.7469 39.5173 38.87 39.5173C38.9823 39.5173 39.095 39.4761 39.1835 39.3927C39.3695 39.2183 39.3798 38.9246 39.2064 38.737L31.8465 30.7715C31.6726 30.5835 31.382 30.574 31.1964 30.7484C31.0105 30.9229 31.0001 31.2165 31.1735 31.4041L38.5335 39.3696Z" fill="#0392CF"/>
<path d="M40.0963 30.7785C40.2661 30.7785 40.4292 30.6838 40.5091 30.5198C40.6219 30.2901 40.528 30.0118 40.3003 29.8986L34.0903 26.8055C33.8629 26.6922 33.5867 26.7865 33.4744 27.0162C33.3616 27.246 33.4555 27.5242 33.6833 27.6375L39.8933 30.7305C39.9584 30.7631 40.028 30.7785 40.0963 30.7785Z" fill="#0392CF"/>
<path d="M38.9171 16.8124C39.1458 16.7005 39.2415 16.4232 39.131 16.1925C39.0209 15.9619 38.7455 15.8663 38.5164 15.9769L33.6096 18.3743C33.381 18.4863 33.2853 18.7636 33.3958 18.9942C33.4753 19.1601 33.6393 19.2561 33.8104 19.2561C33.8774 19.2561 33.9461 19.2412 34.0103 19.2099L38.9171 16.8124Z" fill="#0392CF"/>
<path d="M39.0533 6.87573C38.8799 6.68768 38.5888 6.67771 38.4033 6.85262L30.5065 14.2766C30.3205 14.4515 30.3102 14.7447 30.4836 14.9323C30.5743 15.0306 30.697 15.08 30.82 15.08C30.9324 15.08 31.0451 15.0388 31.1336 14.9554L39.0304 7.5314C39.2164 7.35649 39.2267 7.06332 39.0533 6.87573Z" fill="#0392CF"/>
<path d="M29.6408 5.74934L26.5745 12.0133C26.4617 12.2431 26.5556 12.5213 26.7834 12.6346C26.8485 12.6672 26.9181 12.6826 26.9864 12.6826C27.1562 12.6826 27.3193 12.5879 27.3992 12.4239L30.4656 6.15987C30.5784 5.93013 30.4845 5.65191 30.2567 5.53863C30.0303 5.4249 29.7531 5.5196 29.6408 5.74934Z" fill="#0392CF"/>
</svg>
