<svg width="31" height="31" viewBox="0 0 31 31" fill="none" xmlns="http://www.w3.org/2000/svg">
<path d="M15.5 31C24.0604 31 31 24.0604 31 15.5C31 6.93959 24.0604 0 15.5 0C6.93959 0 0 6.93959 0 15.5C0 24.0604 6.93959 31 15.5 31Z" fill="#41B4E6"/>
<path d="M31 14.5479C31 14.1701 30.9855 13.7958 30.9585 13.4248L24.4128 7L6 14.1092L13.0449 21.0242L13.1373 21.3507L13.2569 21.2324L13.2574 21.2328L13.1373 21.3507L20.9302 29C26.8232 26.7497 31 21.1279 31 14.5479Z" fill="#0091C8"/>
<path d="M13.9173 17.3938L21.2823 23L25 7L6 14.535L11.7815 16.4657L22.3328 9.3301L13.9173 17.3938Z" fill="white"/>
<path d="M12 16.7559L13.5007 23L14.0242 17.7647L22 9L12 16.7559Z" fill="#D2D2D7"/>
<path d="M17 19.8914L14 23L14.5625 18L17 19.8914Z" fill="#B9B9BE"/>
</svg>
