<svg width="22" height="18" viewBox="0 0 22 18" fill="none" xmlns="http://www.w3.org/2000/svg">
<path d="M1.50052 18C1.20342 17.9988 0.913313 17.9097 0.666675 17.744C0.420037 17.5784 0.227876 17.3435 0.114347 17.069C0.000818856 16.7944 -0.0290107 16.4924 0.0286105 16.2009C0.0862317 15.9095 0.228732 15.6415 0.438195 15.4308L6.90258 8.95891L0.438195 2.48699C0.191333 2.19873 0.0623374 1.82793 0.0769857 1.44869C0.091634 1.06945 0.248848 0.709708 0.517209 0.441347C0.785571 0.172985 1.14531 0.0157721 1.52455 0.00112378C1.90379 -0.0135245 2.27459 0.115471 2.56285 0.362332L10.0971 7.89658C10.3777 8.1789 10.5353 8.56082 10.5353 8.95891C10.5353 9.35699 10.3777 9.73891 10.0971 10.0212L2.56285 17.5555C2.28156 17.8385 1.89952 17.9983 1.50052 18Z" fill="#45B4E3"/>
<path d="M12.5005 18C12.2034 17.9988 11.9133 17.9097 11.6667 17.744C11.42 17.5784 11.2279 17.3435 11.1143 17.069C11.0008 16.7944 10.971 16.4924 11.0286 16.2009C11.0862 15.9095 11.2287 15.6415 11.4382 15.4308L17.9026 8.95891L11.4382 2.48699C11.1913 2.19873 11.0623 1.82793 11.077 1.44869C11.0916 1.06945 11.2488 0.709708 11.5172 0.441347C11.7856 0.172985 12.1453 0.0157721 12.5246 0.00112378C12.9038 -0.0135245 13.2746 0.115471 13.5629 0.362332L21.0971 7.89658C21.3777 8.1789 21.5353 8.56082 21.5353 8.95891C21.5353 9.35699 21.3777 9.73891 21.0971 10.0212L13.5629 17.5555C13.2816 17.8385 12.8995 17.9983 12.5005 18Z" fill="#45B4E3"/>
</svg>
