<svg width="31" height="31" viewBox="0 0 31 31" fill="none" xmlns="http://www.w3.org/2000/svg">
<path d="M15.5039 0H15.4961C6.94981 0 0 6.95175 0 15.5C0 18.8906 1.09275 22.0333 2.95081 24.5849L1.01912 30.3432L6.97694 28.4386C9.42788 30.0623 12.3516 31 15.5039 31C24.0502 31 31 24.0463 31 15.5C31 6.95369 24.0502 0 15.5039 0Z" fill="#4CAF50"/>
<path d="M25.6425 21.7213C25.2351 22.7717 23.6181 23.6429 22.3283 23.8973C21.4459 24.0688 20.2933 24.2057 16.4134 22.737C11.4505 20.8597 8.25451 16.2552 8.00542 15.9565C7.76688 15.6578 6 13.5184 6 11.3057C6 9.09313 7.23069 8.01573 7.72677 7.55316C8.13418 7.17346 8.80758 7 9.45354 7C9.66252 7 9.8504 7.00964 10.0193 7.01735C10.5154 7.03662 10.7644 7.0636 11.0916 7.77866C11.4991 8.67489 12.4912 10.8875 12.6094 11.1149C12.7298 11.3424 12.8501 11.6507 12.6812 11.9495C12.5229 12.2579 12.3836 12.3947 12.1345 12.6568C11.8854 12.919 11.6489 13.1194 11.3998 13.4008C11.1719 13.6456 10.9143 13.9077 11.2014 14.3606C11.4885 14.8039 12.4807 16.2822 13.9414 17.4695C15.8265 19.0017 17.3549 19.4913 17.9016 19.6995C18.309 19.8536 18.7945 19.817 19.0922 19.5279C19.4701 19.1559 19.9366 18.5392 20.4115 17.9321C20.7493 17.4965 21.1757 17.4425 21.6232 17.5967C22.0792 17.7412 24.492 18.8302 24.9881 19.0557C25.4842 19.2831 25.8114 19.3911 25.9317 19.5819C26.0499 19.7727 26.0499 20.6689 25.6425 21.7213Z" fill="#FAFAFA"/>
</svg>
